<svg width="118" height="20" viewBox="0 0 118 20" fill="none" xmlns="http://www.w3.org/2000/svg">
<path d="M7.08203 5.38208C6.58984 6.13403 6.16829 6.80396 5.81738 7.39185C5.47103 7.97974 5.19759 8.48787 4.99707 8.91626C4.59147 9.76847 4.28613 10.6093 4.08105 11.4387C3.88053 12.2681 3.78027 13.1272 3.78027 14.0159H2.49512C2.49512 13.3778 2.5612 12.7307 2.69336 12.0745C2.82552 11.4137 3.03743 10.7209 3.3291 9.99634C3.60254 9.3173 3.94889 8.60181 4.36816 7.84985C4.79199 7.09334 5.30013 6.2867 5.89258 5.42993H0.717773V4.38403H7.08203V5.38208ZM14.916 9.00513C14.916 10.6594 14.613 11.9309 14.0068 12.8196C13.4053 13.7083 12.5462 14.1526 11.4297 14.1526C10.6777 14.1526 10.0739 13.9954 9.61816 13.6809C9.16699 13.3619 8.84342 12.8492 8.64746 12.1428L9.82324 11.9583C10.0693 12.7603 10.6117 13.1614 11.4502 13.1614C12.1566 13.1614 12.7035 12.8333 13.0908 12.177C13.4782 11.5208 13.681 10.5842 13.6992 9.36743C13.5169 9.77759 13.2048 10.108 12.7627 10.3586C12.3206 10.6047 11.8353 10.7278 11.3066 10.7278C10.7324 10.7278 10.2311 10.5933 9.80273 10.3245C9.37435 10.0556 9.04167 9.67733 8.80469 9.1897C8.56771 8.70207 8.44922 8.13241 8.44922 7.48071C8.44922 6.47355 8.73177 5.68286 9.29688 5.10864C9.86198 4.52987 10.6481 4.24048 11.6553 4.24048C12.7262 4.24048 13.5374 4.63696 14.0889 5.42993C14.6403 6.2229 14.916 7.41463 14.916 9.00513ZM13.5762 7.81567C13.5762 7.04093 13.3984 6.41886 13.043 5.94946C12.6875 5.4755 12.2113 5.23853 11.6143 5.23853C11.0218 5.23853 10.5547 5.44132 10.2129 5.84692C9.87109 6.24797 9.7002 6.79256 9.7002 7.48071C9.7002 8.18254 9.87109 8.73853 10.2129 9.14868C10.5547 9.55428 11.0173 9.75708 11.6006 9.75708C11.9561 9.75708 12.2819 9.67505 12.5781 9.51099C12.8789 9.34692 13.1204 9.11906 13.3027 8.82739C13.485 8.53117 13.5762 8.19393 13.5762 7.81567ZM18.2793 4.302C19.7057 4.302 20.4189 5.31828 20.4189 7.35083C20.4189 8.33976 20.2367 9.10083 19.8721 9.63403C19.512 10.1672 18.972 10.4338 18.252 10.4338C17.5319 10.4338 16.9896 10.1695 16.625 9.64087C16.265 9.11222 16.085 8.34888 16.085 7.35083C16.085 6.33455 16.2604 5.57349 16.6113 5.06763C16.9622 4.55721 17.5182 4.302 18.2793 4.302ZM25.5049 4.38403L19.1885 14.0159H18.1289L24.4316 4.38403H25.5049ZM19.4141 7.35083C19.4141 6.54875 19.3275 5.96313 19.1543 5.59399C18.9811 5.22485 18.6895 5.04028 18.2793 5.04028C17.8509 5.04028 17.5456 5.22257 17.3633 5.58716C17.181 5.94718 17.0898 6.53507 17.0898 7.35083C17.0898 8.13924 17.181 8.72257 17.3633 9.10083C17.5456 9.47453 17.8464 9.66138 18.2656 9.66138C18.6621 9.66138 18.9515 9.46997 19.1338 9.08716C19.3206 8.70435 19.4141 8.12557 19.4141 7.35083ZM27.5352 11.0491C27.5352 12.0289 27.3506 12.7831 26.9814 13.3118C26.6123 13.8359 26.0677 14.0979 25.3477 14.0979C24.6367 14.0979 24.099 13.8427 23.7344 13.3323C23.3743 12.8173 23.1943 12.0562 23.1943 11.0491C23.1943 10.01 23.3675 9.23755 23.7139 8.73169C24.0648 8.22127 24.6185 7.96606 25.375 7.96606C26.1224 7.96606 26.6693 8.22811 27.0156 8.7522C27.362 9.27173 27.5352 10.0374 27.5352 11.0491ZM26.5234 11.0491C26.5234 10.2333 26.4346 9.64315 26.2568 9.27856C26.0837 8.90942 25.7897 8.72485 25.375 8.72485C24.9603 8.72485 24.6595 8.90487 24.4727 9.26489C24.2904 9.62492 24.1992 10.2196 24.1992 11.0491C24.1992 11.8284 24.2881 12.4071 24.4658 12.7854C24.6481 13.1591 24.9466 13.3459 25.3613 13.3459C25.7624 13.3459 26.0563 13.1568 26.2432 12.7786C26.43 12.3958 26.5234 11.8193 26.5234 11.0491Z" fill="#A1A1A1"/>
<path d="M51.0444 9.04614C51.0444 10.7551 50.7322 12.0334 50.1078 12.8811C49.4835 13.7288 48.5971 14.1526 47.4487 14.1526C46.601 14.1526 45.9356 13.9726 45.4526 13.6125C44.9741 13.248 44.6345 12.6737 44.434 11.8899L46.2387 11.637C46.4164 12.3069 46.8266 12.6418 47.4692 12.6418C48.0069 12.6418 48.4194 12.3844 48.7065 11.8694C48.9981 11.3544 49.1485 10.5911 49.1577 9.57935C48.9845 9.92114 48.6996 10.19 48.3032 10.386C47.9112 10.5774 47.4874 10.6731 47.0317 10.6731C46.4666 10.6731 45.9767 10.5432 45.562 10.2834C45.1472 10.0191 44.8259 9.64771 44.5981 9.16919C44.3748 8.69067 44.2631 8.12329 44.2631 7.46704C44.2631 6.45532 44.5548 5.66463 45.1381 5.09497C45.726 4.52531 46.5554 4.24048 47.6264 4.24048C48.7794 4.24048 49.6362 4.64152 50.1967 5.4436C50.7618 6.24113 51.0444 7.44198 51.0444 9.04614ZM49.0141 7.69946C49.0141 7.10246 48.8819 6.6285 48.6176 6.27759C48.3578 5.92212 48.0115 5.74438 47.5786 5.74438C47.1547 5.74438 46.8198 5.89933 46.5737 6.20923C46.3321 6.51457 46.2114 6.9384 46.2114 7.48071C46.2114 8.01392 46.3321 8.4423 46.5737 8.76587C46.8152 9.08488 47.1524 9.24438 47.5854 9.24438C47.8588 9.24438 48.1026 9.18058 48.3168 9.05298C48.531 8.92537 48.6996 8.74536 48.8227 8.51294C48.9503 8.28052 49.0141 8.00936 49.0141 7.69946ZM58.9262 11.302C58.9262 12.2043 58.6277 12.9062 58.0307 13.4075C57.4337 13.9042 56.5815 14.1526 55.4741 14.1526C54.3758 14.1526 53.5235 13.9042 52.9174 13.4075C52.3159 12.9107 52.0151 12.2135 52.0151 11.3157C52.0151 10.7004 52.1928 10.1832 52.5483 9.76392C52.9037 9.34009 53.38 9.07804 53.977 8.97778V8.95044C53.4575 8.83651 53.0382 8.57902 52.7192 8.17798C52.4002 7.77694 52.2407 7.31437 52.2407 6.79028C52.2407 6.00187 52.5187 5.3798 53.0746 4.92407C53.6352 4.46834 54.4259 4.24048 55.4467 4.24048C56.4903 4.24048 57.2901 4.46379 57.8461 4.9104C58.4067 5.35246 58.687 5.98364 58.687 6.80396C58.687 7.32804 58.5274 7.78833 58.2084 8.18481C57.894 8.5813 57.4702 8.83195 56.937 8.93677V8.96411C57.5567 9.06437 58.0421 9.31958 58.393 9.72974C58.7485 10.1353 58.9262 10.6594 58.9262 11.302ZM56.7114 6.90649C56.7114 6.02694 56.2898 5.58716 55.4467 5.58716C54.6173 5.58716 54.2026 6.02694 54.2026 6.90649C54.2026 7.36678 54.3074 7.71313 54.517 7.94556C54.7267 8.17342 55.0411 8.28735 55.4604 8.28735C55.8797 8.28735 56.1918 8.18026 56.3969 7.96606C56.6065 7.75187 56.7114 7.39868 56.7114 6.90649ZM56.937 11.1448C56.937 10.6435 56.8116 10.2675 56.561 10.0168C56.3103 9.76164 55.9343 9.63403 55.433 9.63403C54.9682 9.63403 54.6105 9.76619 54.3598 10.0305C54.1137 10.2948 53.9907 10.6754 53.9907 11.1721C53.9907 11.7372 54.1137 12.1497 54.3598 12.4094C54.6059 12.6692 54.9819 12.7991 55.4877 12.7991C55.9845 12.7991 56.3491 12.6692 56.5815 12.4094C56.8185 12.1497 56.937 11.7281 56.937 11.1448ZM71.2377 10.2834C71.2377 11.5185 70.9894 12.4732 70.4926 13.1477C70.0004 13.8176 69.3032 14.1526 68.4008 14.1526C67.3299 14.1526 66.5825 13.7151 66.1586 12.8401H66.1176C66.145 12.9768 66.1586 13.3915 66.1586 14.0842V16.9211H64.2377V8.32153C64.2377 7.97062 64.2332 7.65389 64.2241 7.37134C64.2149 7.08879 64.2013 6.83813 64.183 6.61938H66.0493C66.0675 6.67407 66.0812 6.7675 66.0903 6.89966C66.1039 7.02726 66.1131 7.1731 66.1176 7.33716C66.1267 7.50122 66.1313 7.663 66.1313 7.82251H66.1586C66.3728 7.36678 66.6782 7.02726 67.0746 6.80396C67.4711 6.57609 67.9542 6.46216 68.5239 6.46216C69.3852 6.46216 70.0528 6.79484 70.5268 7.46021C71.0008 8.12101 71.2377 9.06209 71.2377 10.2834ZM69.2348 10.2834C69.2348 9.45402 69.1072 8.83195 68.852 8.41724C68.6013 8.00252 68.2208 7.79517 67.7104 7.79517C67.2 7.79517 66.808 8.01847 66.5346 8.46509C66.2657 8.9117 66.1313 9.53605 66.1313 10.3381C66.1313 11.1357 66.2657 11.7532 66.5346 12.1907C66.808 12.6236 67.1954 12.8401 67.6967 12.8401C68.2117 12.8401 68.5968 12.6282 68.852 12.2043C69.1072 11.776 69.2348 11.1357 69.2348 10.2834ZM74.7172 10.386V14.0159H72.7963V8.35571C72.7963 7.95011 72.7895 7.61287 72.7758 7.34399C72.7667 7.07056 72.7553 6.82902 72.7416 6.61938H74.5737C74.5828 6.6604 74.5919 6.75155 74.601 6.89282C74.6101 7.0341 74.6192 7.1936 74.6284 7.37134C74.6375 7.54451 74.6443 7.70858 74.6489 7.86353C74.658 8.01847 74.6625 8.13013 74.6625 8.19849H74.6899C74.8722 7.68807 75.0385 7.32121 75.1889 7.0979C75.3347 6.88371 75.5079 6.72648 75.7084 6.62622C75.909 6.52596 76.1596 6.47583 76.4604 6.47583C76.7065 6.47583 76.9047 6.51001 77.0551 6.57837V8.18481C76.7498 8.11646 76.4763 8.08228 76.2348 8.08228C75.7563 8.08228 75.3826 8.27596 75.1137 8.66333C74.8494 9.0507 74.7172 9.62492 74.7172 10.386ZM85.2787 10.3108C85.2787 11.5094 84.9461 12.4504 84.2807 13.134C83.6153 13.8131 82.6948 14.1526 81.519 14.1526C80.366 14.1526 79.4614 13.8108 78.8051 13.1272C78.1489 12.4436 77.8207 11.5048 77.8207 10.3108C77.8207 9.12134 78.1489 8.18709 78.8051 7.50806C79.4614 6.82446 80.3797 6.48267 81.56 6.48267C82.7677 6.48267 83.6883 6.81307 84.3217 7.47388C84.9597 8.13013 85.2787 9.07576 85.2787 10.3108ZM83.269 10.3108C83.269 9.43123 83.1254 8.79321 82.8383 8.39673C82.5512 8.00024 82.1342 7.802 81.5873 7.802C81.004 7.802 80.5665 8.01164 80.2748 8.43091C79.9832 8.84562 79.8373 9.47225 79.8373 10.3108C79.8373 11.1357 79.9786 11.7646 80.2612 12.1975C80.5483 12.6259 80.9607 12.8401 81.4985 12.8401C82.0909 12.8401 82.533 12.6305 82.8246 12.2112C83.1209 11.7874 83.269 11.1539 83.269 10.3108ZM88.7377 3.87134V5.28638H86.8168V3.87134H88.7377ZM86.7758 16.9211C86.3246 16.9211 85.9373 16.9006 85.6137 16.8596V15.5061C85.673 15.5107 85.7322 15.5152 85.7914 15.5198C85.8461 15.5289 85.9031 15.5334 85.9623 15.5334C86.2905 15.5334 86.5138 15.4605 86.6323 15.3147C86.7553 15.1734 86.8168 14.8772 86.8168 14.426V6.61938H88.7377V14.8909C88.7377 15.5426 88.5714 16.0439 88.2387 16.3948C87.9106 16.7457 87.423 16.9211 86.7758 16.9211ZM92.2924 10.6868C92.2924 11.4068 92.4246 11.9514 92.6889 12.3206C92.9578 12.6851 93.3383 12.8674 93.8305 12.8674C94.1677 12.8674 94.4435 12.7945 94.6577 12.6487C94.8764 12.4983 95.0291 12.2773 95.1157 11.9856L96.9272 12.1428C96.4031 13.4827 95.339 14.1526 93.7348 14.1526C92.6228 14.1526 91.7683 13.8245 91.1713 13.1682C90.5743 12.5074 90.2758 11.5458 90.2758 10.2834C90.2758 9.06209 90.5789 8.12329 91.185 7.46704C91.7911 6.81079 92.6502 6.48267 93.7621 6.48267C94.824 6.48267 95.6352 6.83586 96.1957 7.54224C96.7563 8.24406 97.0366 9.27401 97.0366 10.6321V10.6868H92.2924ZM95.1772 9.48364C95.1407 8.88664 94.9972 8.44002 94.7465 8.1438C94.4959 7.84302 94.1586 7.69263 93.7348 7.69263C93.2836 7.69263 92.935 7.84985 92.6889 8.16431C92.4474 8.47876 92.3198 8.91854 92.3061 9.48364H95.1772ZM101.582 14.1526C100.461 14.1526 99.5955 13.8199 98.9848 13.1545C98.3741 12.4846 98.0688 11.5527 98.0688 10.3586C98.0688 9.13729 98.3764 8.18709 98.9916 7.50806C99.6069 6.82446 100.48 6.48267 101.61 6.48267C102.48 6.48267 103.2 6.70142 103.77 7.13892C104.34 7.57642 104.697 8.18026 104.843 8.95044L102.909 9.04614C102.854 8.66789 102.717 8.36711 102.498 8.1438C102.28 7.91593 101.97 7.802 101.569 7.802C101.072 7.802 100.701 8.00936 100.455 8.42407C100.208 8.83423 100.085 9.45402 100.085 10.2834C100.085 11.1357 100.211 11.776 100.461 12.2043C100.717 12.6282 101.095 12.8401 101.596 12.8401C101.961 12.8401 102.266 12.7262 102.512 12.4983C102.758 12.2659 102.911 11.9218 102.97 11.4661L104.898 11.5549C104.83 12.0745 104.645 12.5302 104.344 12.9221C104.048 13.3095 103.663 13.6125 103.189 13.8313C102.715 14.0455 102.179 14.1526 101.582 14.1526ZM109.806 13.9065C109.341 14.0614 108.801 14.1389 108.186 14.1389C107.621 14.1389 107.186 13.9862 106.88 13.6809C106.575 13.371 106.422 12.9039 106.422 12.2795V7.91821H105.486V6.61938H106.518L107.12 4.88306H108.323V6.61938H109.724V7.91821H108.323V11.76C108.323 12.12 108.391 12.3866 108.528 12.5598C108.664 12.7284 108.876 12.8127 109.164 12.8127C109.3 12.8127 109.514 12.7808 109.806 12.717V13.9065ZM117.189 11.8557C117.189 12.5712 116.895 13.134 116.307 13.5442C115.724 13.9498 114.915 14.1526 113.88 14.1526C112.864 14.1526 112.085 13.9931 111.542 13.6741C111.005 13.3505 110.647 12.8492 110.469 12.1702L112.158 11.9172C112.253 12.2681 112.417 12.5165 112.65 12.6624C112.887 12.8082 113.297 12.8811 113.88 12.8811C114.418 12.8811 114.81 12.8127 115.056 12.676C115.302 12.5393 115.425 12.3251 115.425 12.0334C115.425 11.7965 115.325 11.6096 115.124 11.4729C114.928 11.3316 114.594 11.2131 114.12 11.1174C113.76 11.0445 113.436 10.9739 113.149 10.9055C112.866 10.8372 112.622 10.7711 112.417 10.7073C112.217 10.6389 112.053 10.5751 111.925 10.5159C111.547 10.329 111.258 10.0898 111.057 9.7981C110.861 9.50643 110.763 9.1464 110.763 8.71802C110.763 8.01164 111.034 7.46248 111.577 7.07056C112.123 6.67407 112.896 6.47583 113.894 6.47583C114.774 6.47583 115.48 6.64673 116.013 6.98853C116.551 7.33032 116.886 7.82479 117.018 8.47192L115.316 8.64966C115.261 8.34888 115.127 8.12557 114.913 7.97974C114.698 7.82935 114.359 7.75415 113.894 7.75415C113.438 7.75415 113.096 7.8134 112.869 7.93188C112.641 8.04582 112.527 8.2395 112.527 8.51294C112.527 8.72713 112.613 8.89803 112.787 9.02563C112.964 9.14868 113.261 9.25122 113.675 9.33325C114.254 9.45174 114.767 9.57479 115.213 9.70239C115.664 9.82544 116.027 9.97355 116.3 10.1467C116.569 10.3199 116.783 10.5432 116.943 10.8167C117.107 11.0855 117.189 11.4319 117.189 11.8557Z" fill="#0A0A0A"/>
</svg>
