<svg width="20" height="20" viewBox="0 0 20 20" fill="none" xmlns="http://www.w3.org/2000/svg">
<g clip-path="url(#clip0_1_64)">
<path d="M15 3.33333H5.00004C4.07957 3.33333 3.33337 4.07952 3.33337 4.99999V15C3.33337 15.9205 4.07957 16.6667 5.00004 16.6667H15C15.9205 16.6667 16.6667 15.9205 16.6667 15V4.99999C16.6667 4.07952 15.9205 3.33333 15 3.33333Z" stroke="#FAFAFA" stroke-width="1.66667" stroke-linecap="round" stroke-linejoin="round"/>
<path d="M11.6667 7.5H8.33333C7.8731 7.5 7.5 7.8731 7.5 8.33333V11.6667C7.5 12.1269 7.8731 12.5 8.33333 12.5H11.6667C12.1269 12.5 12.5 12.1269 12.5 11.6667V8.33333C12.5 7.8731 12.1269 7.5 11.6667 7.5Z" stroke="#FAFAFA" stroke-width="1.66667" stroke-linecap="round" stroke-linejoin="round"/>
<path d="M12.5 1.66667V3.33334" stroke="#FAFAFA" stroke-width="1.66667" stroke-linecap="round" stroke-linejoin="round"/>
<path d="M12.5 16.6667V18.3333" stroke="#FAFAFA" stroke-width="1.66667" stroke-linecap="round" stroke-linejoin="round"/>
<path d="M1.66663 12.5H3.33329" stroke="#FAFAFA" stroke-width="1.66667" stroke-linecap="round" stroke-linejoin="round"/>
<path d="M1.66663 7.5H3.33329" stroke="#FAFAFA" stroke-width="1.66667" stroke-linecap="round" stroke-linejoin="round"/>
<path d="M16.6666 12.5H18.3333" stroke="#FAFAFA" stroke-width="1.66667" stroke-linecap="round" stroke-linejoin="round"/>
<path d="M16.6666 7.5H18.3333" stroke="#FAFAFA" stroke-width="1.66667" stroke-linecap="round" stroke-linejoin="round"/>
<path d="M7.5 1.66667V3.33334" stroke="#FAFAFA" stroke-width="1.66667" stroke-linecap="round" stroke-linejoin="round"/>
<path d="M7.5 16.6667V18.3333" stroke="#FAFAFA" stroke-width="1.66667" stroke-linecap="round" stroke-linejoin="round"/>
</g>
<defs>
<clipPath id="clip0_1_64">
<rect width="20" height="20" fill="white"/>
</clipPath>
</defs>
</svg>
